<?xml version="1.0" encoding="UTF-8" standalone="no"?>
<!DOCTYPE svg PUBLIC "-//W3C//DTD SVG 1.1//EN" "http://www.w3.org/Graphics/SVG/1.1/DTD/svg11.dtd">
<svg width="100%" height="100%" viewBox="0 0 71 166" version="1.1" xmlns="http://www.w3.org/2000/svg" xmlns:xlink="http://www.w3.org/1999/xlink" xml:space="preserve" xmlns:serif="http://www.serif.com/" style="fill-rule:evenodd;clip-rule:evenodd;stroke-linejoin:round;stroke-miterlimit:2;">
    <g transform="matrix(6.12323e-17,1,-1,6.12323e-17,70.7,-6.12323e-18)">
        <path d="M101.5,28.6C101.3,28.7 101.1,28.8 101,28.8C101,29.2 101.1,29.5 101.1,29.9C101.1,30.2 101,30.6 100.9,30.9C100.9,31 100.8,31.1 100.7,31.3C100.6,31.5 100.5,31.6 100.5,31.8C100.5,32.2 100.2,32.6 100.4,33.1C100.4,33.2 100.3,33.3 100.3,33.4C99.8,33.9 99.8,34.7 99.4,35.4C99.3,35.5 99.4,35.6 99.3,35.8C99.3,36.1 99.2,36.4 99,36.7C98.7,37.1 98.7,37.6 98.6,38.1C98.6,38.3 98.5,38.4 98.4,38.6C98.2,38.9 98,39.2 98.1,39.6C98.1,39.7 98.1,39.9 98,39.9C97.4,40.4 97.5,41.3 97,41.9C96.9,42 96.8,42.2 96.7,42.3C96.5,42.6 96.4,42.9 96.2,43.2C96,43.5 95.8,43.7 95.6,44C95,44.8 94.4,45.6 93.8,46.3L93.5,46.6C93.5,46.4 93.4,46.2 93.4,46.2C92.9,46.1 93,45.8 92.9,45.4C92.7,43.7 92.6,42 92.6,40.2C92.6,39.6 92.7,39 92.8,38.4C92.8,38.2 92.8,37.9 92.7,37.7C92.5,37.3 92.5,37.1 92.8,36.8C93,36.6 93.1,36.2 93.1,35.8L93.4,34.3L93.4,33.7C93.5,33.3 93,33 93.3,32.6C93.5,32.3 93.6,31.9 93.8,31.6C93.9,31.5 93.9,31.3 94,31.2C93.7,30.8 93.8,30.4 93.9,30C94,29.6 93.9,29.3 94.2,28.9C94.5,28.5 94.6,27.9 94.4,27.3C94.3,26.9 94.3,26.6 94.5,26.2C94.8,25.5 95,24.8 95.2,24.1C95.3,23.9 95.3,23.7 95.3,23.5C95.4,23.2 95.5,22.8 95.6,22.5C95.7,22.1 95.8,21.7 95.9,21.2C96,21 96,20.7 96.1,20.5C96.2,20.1 96.4,19.8 96.3,19.3C96.2,18.5 96.5,17.8 96.7,17.1C96.8,16.7 97.1,16.3 96.9,15.7C96.9,15.6 96.9,15.5 97,15.4C97.3,14.9 97.5,14.3 97.6,13.7C97.6,13.6 97.7,13.5 97.7,13.4C97.7,12 97.7,12 98.3,10.7C98.4,10.5 98.3,10.3 98.4,10C98.4,9.7 98.5,9.3 98.5,9C98.5,8.9 98.6,8.8 98.6,8.7C98.6,8.1 98.8,7.6 98.9,7.1C99.2,6.2 99.1,5.2 99.1,4.3C99.1,3.9 99.1,3.7 99.6,3.7C99.5,3.6 99.4,3.5 99.4,3.4C99.4,3.3 99.3,3.1 99.4,3C99.6,2.7 99.7,2.3 99.8,2C99.8,1.8 100.1,1.7 100.2,1.6C100.3,1.5 100.4,1.6 100.5,1.5L101.1,0.6C101.3,0.4 101.6,0.3 102,0.1C102.2,0.4 102.6,0.7 102.9,1.1C103.1,1 103.4,0.9 103.7,0.8C104.1,1.1 104.5,1.5 104.9,1.8L105.4,2.8C105.5,3.1 105.6,3.2 106,3.1C106,3.7 105.9,4.3 106.3,4.8L106.3,5.1C106.3,5.3 106.2,5.5 106.2,5.8C106.2,6.2 106.2,6.5 106,6.8C105.9,6.9 105.8,7.1 106,7.3C106.3,7.6 106.1,7.9 105.9,8.2C105.5,8.8 105.5,9.5 105.7,10.2C105.7,10.3 105.8,10.5 105.8,10.7C105.4,11 105.2,11.4 105.2,11.9L104.6,14.6C104.6,14.7 104.5,14.9 104.5,15C104.6,15.5 104.5,15.9 104.3,16.3C104,17 104,17.7 104,18.4C104,18.6 103.7,18.9 104,19.2C104.1,19.3 104,19.7 103.9,19.8C103.4,20.1 103.5,20.8 103.3,21.2C103.2,21.3 103.2,21.6 103.3,21.6C103.7,22.1 103.2,22.5 103.2,23C103.2,23.2 102.8,23.2 102.8,23.5C102.9,24.1 102.7,24.6 102.6,25.1C102.6,25.3 102.5,25.5 102.4,25.7C102.4,25.8 102.2,26 102.3,26.1C102.1,27.1 101.4,27.7 101.5,28.6ZM29.2,36.5C29.4,36.3 29.5,36.1 29.7,36C29.3,35.8 29,35.6 28.7,35.4C28.7,35.2 28.8,35 28.8,34.8C28.5,34.4 27.8,34.5 27.7,33.9C27.7,33.7 27.8,33.5 27.9,33.3C27.3,33.2 27.3,32.4 26.8,32.1C26.2,31.8 26.3,31.1 25.9,30.6C25.7,30.6 25.5,30.5 25.2,30.4C25.4,30 25.2,29.8 24.9,29.5C24.7,29.2 24.6,28.9 24.5,28.6C24,28.8 24.1,28.1 23.7,28.1C23.9,27.9 24,27.8 24.1,27.6C23.7,27.1 23.2,26.6 22.8,26C22.4,25.5 22.5,25.4 22.8,25C22.7,24.6 22.6,24.3 22.5,24C22.5,23.9 22.4,23.8 22.3,23.7C21.9,23.2 22.1,23.1 22.1,22.6C22.1,22.1 22.4,22.1 22.6,21.8C22.8,21.7 23,21.5 23.1,21.2C23.2,21 23.5,20.9 23.7,20.7C23.9,20.5 24.1,20.4 24.4,20.2C24.6,20.2 25,20.3 25.3,20.2C25.6,20.1 25.9,20.2 26.2,20.4C26.4,20.5 26.7,20.5 27,20.5C27,20.7 26.9,20.9 26.9,21C27.4,21.2 27.7,21.8 28.3,22C28.7,22.2 28.8,22.6 28.6,22.8C28.8,22.9 28.9,23 29.1,23.1C29.2,23.2 29.2,23.3 29.2,23.3C29.7,23.2 29.8,23.7 29.8,24C29.9,24.5 30.1,24.6 30.5,24.7C30.6,25.3 30.8,25.8 31.4,26C31.7,26.1 31.8,26.3 31.9,27.1C32,27.1 32.1,27.1 32.3,27.2L32.6,27.2C32.8,27.5 32.9,27.8 33,28C33.1,28.3 33.1,28.6 33.2,28.8C33.3,29.1 33.4,29.4 33.8,29.5C34.8,29.7 34.9,29.9 34.8,31C35,31 35.2,31 35.4,31.1C35.5,31.2 35.6,31.4 35.8,31.5L35.4,31.9C35.9,32.6 36.5,33.2 37.5,33.6C37.4,33.8 37.3,34.1 37.2,34.4C37.6,34.8 38,35.2 38.4,35.7C38.6,35.9 38.6,36.3 38.7,36.6C39,36.8 39.3,36.9 39.6,37.1C39.4,37.3 39.2,37.5 38.9,37.7C39.7,37.8 39.9,38.2 40,38.8C40,38.9 40,39.1 40.1,39.1C40.8,39.5 41,40.4 41.7,40.8C41.8,40.8 41.9,40.9 41.9,41C42,41.3 41.9,41.6 42.1,41.8C42.3,42 42.6,42.1 42.6,42.4L42.6,42.9C43.3,43.4 43.3,43.4 43.1,44C43.5,44.1 43.9,44.3 44.3,44.5C44.2,44.7 44.1,44.8 44,44.9C44.2,45.1 44.5,45.3 44.6,45.6C44.8,46 45.1,46.4 45.2,46.8C45.5,47.8 46.1,48.6 46.9,49.2C46.8,49.3 46.8,49.4 46.7,49.6C47.7,50.4 48,51.6 48.7,52.6L48.6,52.7C48.4,52.6 48.3,52.4 48.1,52.3C48,53 48.7,53.5 48.7,54.2C48.7,54.8 48.9,55.5 49.1,56.2L48.2,55.9C48.3,56.1 48.3,56.2 48.4,56.5C47.7,56.4 47.1,56.4 46.5,56.2C45.8,56 45.1,55.6 44.5,55.3C44.4,55.3 44.4,55.1 44.4,55C44.3,54.9 44.2,54.6 44,54.6C42.8,54.3 42.3,53.2 41.5,52.5C41,52.1 40.8,51.5 40.2,51.3C40,51.3 39.9,50.9 39.9,50.7C39.9,50.3 39.7,50 39.4,49.8C39.1,49.6 38.7,49.4 38.5,49.1C37.9,48.5 37.5,47.8 36.9,47.1C37,46.7 36.6,46.5 36.5,46.2C36.2,45.7 35.8,45.2 35.4,44.8C35.4,44 34.6,43.8 34.2,43.2C34,42.8 33.7,42.5 33.4,42.1C33.3,42 33.3,41.6 33.2,41.3C32.9,41.1 32.5,40.8 32.6,40.3C32,40 32.2,38.9 31.3,38.8C31,38.3 30.4,38 30.3,37.2C30.2,37.1 29.9,36.6 29.2,36.5ZM57.8,3.2C58.2,3 58.5,2.9 58.8,2.7C59,3 59.1,3.2 59.3,3.5C59.4,3.3 59.5,3.1 59.6,2.8L60,3.2C60.2,2.9 60.4,2.5 60.6,2.2C60.8,2.4 61,2.7 61.2,2.9C61.3,2.7 61.4,2.4 61.5,2.1C62,2.7 62.6,3.3 63.1,3.9C63.2,3.6 63.3,3.4 63.4,3.2C63.5,3.5 63.7,3.7 63.8,3.9C63.9,4 64,4.1 64.2,4.4C64.1,4.5 64.1,4.7 64,4.9C64.9,5 64.8,5.6 64.8,6.3C64.8,6.6 64.9,6.9 65,7.1C65.6,8.1 65.6,8.1 64.9,8.9L64.9,9.1C65.1,9.1 65.3,9 65.5,9L65.6,9C65.8,9.7 66,10.3 66.1,11C66.1,11.2 66,11.5 66,11.8C66.2,11.8 66.4,11.9 66.5,11.9C66.5,12 66.6,12 66.5,12.1C66.3,12.5 66.4,12.9 66.7,13.3C67,13.7 66.7,14 66.7,14.4C67.4,14.9 67.4,14.9 66.8,15.3C67.1,15.9 67.1,14.8 67.4,15.4C67.4,15.5 67.5,15.7 67.4,15.8C67.1,16.1 67.3,16.5 67.4,16.8C67.6,17.3 67.4,17.8 67.6,18.2C67.7,18.5 67.8,18.7 68.1,18.7C68.2,18.7 68.3,18.8 68.4,18.8C68.3,19 68.3,19.1 68.2,19.2C67.9,19.8 67.9,20.3 68.3,20.9C68.5,21.3 68.7,21.8 68.7,22.2C68.6,22.6 68.8,22.9 69,23.3C68.9,23.4 68.8,23.5 68.6,23.6C69.1,23.9 68.6,24.4 68.9,24.8C68.7,25.5 69.5,26.2 69.1,26.9C69.4,27.2 69.3,27.4 69.2,27.8C69.1,28.1 69.1,28.5 69.2,28.7C69.6,29.4 69.2,30.4 69.9,31.1C69.7,31.3 69.3,31.5 69.7,31.9C70.1,32.3 70.1,32.9 70.1,33.3C70.1,34.1 70.2,34.8 70.3,35.6C70.3,35.8 70.1,36.1 70.3,36.3C70.1,36.3 70,36.4 69.9,36.4C70.1,36.8 70.3,37.2 70.6,37.7C70.5,37.7 70.5,37.8 70.4,37.9L70.7,39.4C70.7,39.5 70.7,39.6 70.6,39.7C70.3,40 70.4,40.2 70.8,40.3C70.7,40.4 70.6,40.4 70.4,40.5C70.6,40.9 70.6,41.4 70.5,41.9C70.5,42.4 70.6,42.9 70.7,43.4C70.9,44.3 71,46 70.8,47.1C70.6,46.6 70.4,46.2 70.2,45.7L70,45.7C70,46.1 70,46.4 70.1,47C69.7,46.5 69.5,46.2 69.2,45.8C68.7,45.1 68.5,44.2 67.8,43.6C67.5,43.3 67.4,42.8 67.3,42.4C67.2,42.1 67,41.8 67,41.5C67,41.1 66.8,41 66.6,40.7C66.5,40.6 66.6,40.4 66.6,40.2C66.6,40.1 66.4,40 66.3,39.9C66.2,39.6 66.5,39.3 66.1,39.1C66.2,38.1 65.4,37.4 65.3,36.4C65.2,35.7 64.9,35.1 64.8,34.4C64.8,34.2 64.6,34 64.4,33.6L64.5,33.4C64.4,32.9 64.3,32.5 64.1,32.1C64,31.9 63.8,31.7 63.7,31.5C63.9,31 63.7,30.6 63.2,30.3C63.3,30.1 63.3,30 63.4,29.9C63.2,29.8 63.1,29.7 63,29.7L63,29C63,28.7 62.9,28.4 62.9,28.1C62.9,27.8 62.8,27.5 62.7,27.2C62.5,26.9 62.5,26.4 62.4,26C62.4,25.7 62.4,25.4 62.2,25.3C61.9,25 61.8,24.6 61.9,24.2C61.9,24.1 61.9,24 61.8,23.9C61.4,23.5 61.2,23.1 61.1,22.6C61.1,22.3 60.9,21.9 60.9,21.6C60.9,21.5 60.9,21.3 60.8,21.2C60.2,20.4 60.1,19.5 59.8,18.6C59.6,18 59.4,17.4 59.3,16.8C59.1,15.8 59.1,16.6 58.9,15.7L58.9,15.5C58.5,14.9 58.6,14.3 58.7,13.6C58.7,13.4 58.6,13.1 58.5,13C58.2,12.7 58.1,12.3 58.1,11.9C58.1,11.5 58.1,11.2 57.7,10.9C57.6,10.8 57.6,10.5 57.6,10.3C57.7,9.9 57.6,9.5 57.3,9.2C57.1,8.9 56.9,8.6 57.1,8.3C57.2,8.1 56.8,7.8 57.1,7.6C57.1,7.6 56.9,7.2 56.8,7.1C57,6.6 57.4,6.2 57.2,5.6C57.2,5.5 57.2,5.3 57.3,5.3C58.1,5 58,4.4 58.2,4C58.3,3.7 58.2,3.4 57.8,3.2ZM114.5,57C114.2,56.7 114.1,56.5 113.8,56.3C113.9,55.7 114.1,55 114.2,54.2C114.5,53.1 114.9,52 115.2,50.9C115.2,50.8 115.3,50.6 115.4,50.5C115.8,50.1 116,49.6 116.2,49C116.3,48.6 116.3,48.2 116.7,48C116.9,47.9 116.9,47.7 117,47.5C117.1,47.4 117.1,47.2 117.2,47.1C117.7,46.7 117.8,46.1 117.8,45.6C117.8,45.2 118.1,45.2 118.2,45C118.3,44.7 118.2,44.2 118.7,44.2C118.5,43.9 118.8,43.8 118.9,43.6C119,43.4 119.2,43.1 119.5,42.8C119.6,42.2 120,41.6 120.5,41C120.3,40.6 120.3,40.2 120.7,40.1C121.1,40 121.2,39.8 121.2,39.5C121.2,39.4 121.3,39.3 121.3,39.2C121.8,39.1 121.6,38.8 121.5,38.5C121.9,38.3 122.4,38.2 122.4,37.6C122.4,37.4 122.7,37.2 122.9,37C123.2,36.8 122.5,36.5 123,36.5C122.7,36 123.2,35.9 123.5,35.7C123.6,35.7 123.6,35.6 123.7,35.6C123.6,35.5 123.6,35.4 123.5,35.3C123.6,35.2 123.7,35.2 123.8,35.1C123.5,34.9 123.8,34.7 123.8,34.7C124.4,34.5 124.4,33.8 124.8,33.5C125.3,33.1 125.4,32.6 125.6,32.1C125.8,31.7 126.2,31.5 126,31C126,30.9 126.2,30.7 126.3,30.6C127,30.2 127.1,29.3 127.5,28.7C127.6,28.5 127.7,28.2 127.8,28.1C128.2,27.8 128.5,27.4 129,27.1C129.6,26.7 129.8,26.3 129.9,25.7C129.9,25.6 129.9,25.5 130,25.4C130.8,25.2 130.9,25 130.8,24.4C131.2,24 131.9,23.9 131.8,23.2C132.1,23.1 132.3,23 132.5,22.9C132.7,23.1 132.9,23.3 133.2,23.4C133.4,23.3 133.5,23.2 133.7,23.2C133.9,23.2 134.1,23.3 134.3,23.3L134.3,23.8C134.6,23.6 134.9,23.5 135.2,23.3C135.4,23.5 135.5,23.7 135.7,24L136.1,23.6C136.5,23.8 136.3,24.1 136.2,24.4C136.6,24.6 136.9,24.8 136.6,25.3L136.6,25.6C137.3,26 136.8,26.7 137,27.2C137.1,27.3 136.9,27.6 136.8,27.7C136.4,28.4 136.2,29.1 136,29.8C135.9,30.1 135.8,30.4 135.5,30.6C134.8,31.1 134.9,32.1 134.3,32.7C133.8,33.2 133.6,34 133.2,34.6C132.9,35.1 132.5,35.5 132.2,36C131.8,36.7 131.1,37.1 130.9,37.9C130.9,38 130.7,38.1 130.6,38.2C130.4,38.5 130,38.8 130.2,39.2C130.3,39.5 130.2,39.7 129.8,39.9C129.3,40.2 128.9,40.5 128.6,41C128.4,41.3 128.3,41.6 128.2,41.9C127.8,42.6 127.4,43.1 126.5,43.9C126.1,44.2 125.9,44.7 125.6,45.1C125.5,45.3 125.3,45.5 125.1,45.7C125.4,46.3 124.7,46.7 124.5,47.2C124.1,47.8 123.4,48.2 123.1,49C123.1,49.1 122.9,49.1 122.8,49.2C122.7,49.3 122.6,49.3 122.6,49.4C122.1,50.5 122.1,50.6 121.6,51C120.9,51.4 120.5,52.1 120,52.7C119.9,52.8 119.9,52.8 119.9,52.9C118.8,53.9 118,55.2 116.6,55.9C115.8,56.2 115.2,56.6 114.5,57ZM35.9,69.9C35.7,70.2 35.5,70.4 35.2,70.7C34.6,70.6 33.8,70.6 33.1,70.5C32,70.4 30.9,70 29.7,69.9C29.6,69.9 29.4,69.8 29.3,69.7C28.8,69.3 28.3,69.2 27.7,69.1C27.3,69 26.9,69.1 26.6,68.7C26.5,68.6 26.2,68.5 26,68.4C25.9,68.3 25.6,68.4 25.6,68.3C25.1,67.8 24.6,67.8 24,67.9C23.6,68 23.6,67.6 23.4,67.6C23.1,67.5 22.7,67.7 22.5,67.2C22.2,67.4 22.1,67.2 21.9,67.1C21.6,67 21.4,66.8 21,66.6C20.4,66.6 19.7,66.2 19.1,65.8C18.7,66.1 18.4,66.1 18.2,65.6C18.1,65.3 17.9,65.2 17.6,65.2C17.5,65.2 17.3,65.2 17.3,65.1C17.1,64.6 16.9,64.8 16.6,65C16.3,64.7 16.2,64.1 15.6,64.2C15.4,64.2 15.1,64 15,63.8C14.8,63.6 14.6,64.2 14.5,63.8C14,64.1 13.9,63.7 13.6,63.4C13.6,63.3 13.5,63.3 13.4,63.2L13.2,63.4C13.1,63.3 13,63.2 13,63.1C12.9,63.4 12.6,63.1 12.6,63.1C12.3,62.6 11.7,62.6 11.3,62.3C10.9,61.9 10.3,61.8 9.8,61.6C9.4,61.5 9.1,61.1 8.6,61.3C8.5,61.3 8.3,61.2 8.2,61C7.7,60.3 6.8,60.4 6.2,60.1C6.1,60 5.8,60 5.7,59.8C5.4,59.4 4.9,59.1 4.6,58.8C4.2,58.3 3.7,58.1 3.1,58.1L2.8,58.1C2.5,57.4 2.3,57.2 1.7,57.4C1.3,57.1 1.1,56.4 0.4,56.6C0.3,56.2 0.1,56 -0,55.8C0.1,55.6 0.3,55.3 0.5,55.1C0.4,54.9 0.2,54.8 0.2,54.6C0.2,54.4 0.2,54.2 0.3,54C0.4,54 0.6,54 0.7,53.9C0.5,53.6 0.3,53.3 0.1,53.1C0.3,52.9 0.5,52.7 0.8,52.5C0.6,52.4 0.5,52.3 0.3,52.2C0.5,51.7 0.8,51.8 1,52C1.2,51.6 1.4,51.2 1.9,51.5C2,51.5 2.2,51.5 2.2,51.4C2.5,50.7 3.3,51.1 3.8,50.8C3.9,50.7 4.2,50.8 4.3,50.9C5,51.2 5.7,51.4 6.5,51.5C6.8,51.5 7.1,51.7 7.3,51.9C7.9,52.5 8.8,52.3 9.5,52.9C10,53.3 10.8,53.4 11.5,53.7C12,53.9 12.4,54.3 13,54.6C13.7,54.9 14.2,55.6 15,55.7C15.1,55.7 15.2,55.9 15.4,56C15.7,56.1 16,56.5 16.5,56.3C16.8,56.2 17,56.3 17.3,56.6C17.6,57 18,57.5 18.5,57.7C18.8,57.8 19.1,57.9 19.4,58.1C20.2,58.4 20.7,58.8 21.6,59.6C22,59.9 22.5,60.1 22.9,60.4C23.1,60.5 23.3,60.7 23.5,60.9C24.1,60.6 24.5,61.1 25,61.4C25.7,61.7 26.1,62.4 26.9,62.6C27,62.6 27.1,62.8 27.1,62.9C27.2,63 27.2,63.1 27.3,63.1C28.4,63.4 28.5,63.4 29,63.9C29.5,64.5 30.2,64.8 30.9,65.3C31,65.3 31,65.4 31.1,65.4C32.2,66.4 33.6,67 34.5,68.3C34.9,68.7 35.4,69.3 35.9,69.9ZM130.2,70.7C130.5,70.4 130.9,70.2 130.8,69.8L130.4,69.8L130.4,69.7C131.3,68.5 132.4,67.5 133.6,66.5C134.1,66.1 134.6,65.6 135.2,65.2C135.9,64.7 136.6,64.3 137.4,63.8L138.3,63.2C138.5,63 138.8,62.8 139,62.6C139.6,62.3 140.3,62.1 140.9,61.7C141.5,61.3 142,60.8 142.5,60.4C142.7,60.2 143,60 143.3,59.9C144,59.5 144.8,59.2 145.5,58.8L147.3,57.6C147.7,57.3 148.1,57.1 148.5,56.9C148.8,56.7 149.2,56.7 149.4,56.3L149.5,56.2C150.6,56 151.3,55.4 152.1,54.7C152.2,54.6 152.4,54.6 152.6,54.6C152.8,54.5 153.2,54.5 153.3,54.4C153.8,53.7 154.5,53.5 155.2,53.3C155.6,53.2 155.9,53 156.3,52.8C156.7,52.5 157.1,52.3 157.6,52.3C157.9,52.3 158.3,52.1 158.5,51.8C159.2,51 160.3,50.9 161.3,50.6C161.9,50.4 162.5,50.8 162.9,50.7C163.4,51 163.8,51.2 164.2,51.4C164.6,51.6 164.6,51.9 164.6,52.2C164.6,52.7 164.7,53.1 165.1,53.4C165,53.7 165,54 164.9,54.2C164.8,54.6 164.7,54.9 164.4,55.2C164.2,55.4 164,55.6 163.9,55.9C163.6,56.3 163.4,56.7 162.8,56.6L162.7,56.6C162.1,57.5 160.9,57.5 160.1,58.1C159.6,58.5 159,58.7 158.8,59.3C158.4,59.4 158,59.6 157.6,59.7C156.7,59.9 155.9,60.1 155.3,60.8C155.2,60.9 154.9,61 154.7,61C154.3,61.1 153.8,61 153.5,61.4C152.8,61.3 152.4,62 151.7,62C151.2,62 150.8,62.3 150.5,62.7C150.3,62.9 150,63.1 149.7,63C149.1,63 148.5,63.2 148,63.6C147.7,63.8 147.2,63.9 146.9,64.1C146.1,64.6 145.1,64.8 144.2,65.1C143.8,65.3 143.4,65.5 142.9,65.7C142.5,65.9 142.1,66 141.7,66.2C141.5,66.3 141.3,66.3 141.1,66.4C139.8,67.2 138.2,67.6 136.9,68.4C136.1,68.9 135.2,69.1 134.4,69.5C133.4,70 132.2,70 131.2,70.5C131,70.7 130.6,70.7 130.2,70.7Z" style="fill:white;fill-rule:nonzero;"/>
    </g>
</svg>
